<?xml version="1.0" encoding="utf-8"?>
<!-- Generator: Adobe Illustrator 16.0.0, SVG Export Plug-In . SVG Version: 6.00 Build 0)  -->
<!DOCTYPE svg PUBLIC "-//W3C//DTD SVG 1.0//EN" "http://www.w3.org/TR/2001/REC-SVG-20010904/DTD/svg10.dtd">
<svg version="1.0" id="Layer_1" xmlns="http://www.w3.org/2000/svg" xmlns:xlink="http://www.w3.org/1999/xlink" x="0px" y="0px"
	 width="512px" height="512px" viewBox="0 0 512 512" enable-background="new 0 0 512 512" xml:space="preserve">
<polygon points="146.667,417.667 94,365 72.333,437.667 "/>
<polygon points="159.333,404.334 107,352 188.333,271 241.667,323.334 "/>
<polygon points="320.334,245.333 267,193.667 351,110.333 403.667,162.667 "/>
<path d="M412.667,154L360,101.667c0,0,16.333-18.167,18.833-20.167s20-11.5,38.667-1.167c0,0,19,13.667,22,26s-3.666,22.167-8,27
	S412.667,154,412.667,154z"/>
<polygon points="381,435.5 72.333,127 124.25,75.25 135,86.5 101,120.25 113.25,132.75 147,98.25 160.25,111.75 138,134.5 
	149.5,146.5 172.25,123.75 186.75,138.75 152.75,172.25 164,184 198.75,149.5 215.5,167 193,189.75 204.5,201.75 227.75,179.25 
	243.25,195 209.5,229 221.75,241.25 256,207.25 273,224.5 250.25,247.5 263.5,260.75 286.75,237.5 305.25,256 271.25,290.25 
	284,303.5 318,269.5 337.25,288.5 314.75,311.75 328,325 351,301.75 368.75,320 335.334,354.25 348.75,367.75 382.75,333.75 
	400.5,351.25 377.5,374.75 390.25,387.5 413.5,364.25 433,384.25 "/>
</svg>
